<?xml version="1.0" standalone="no"?>
<!DOCTYPE svg PUBLIC "-//W3C//DTD SVG 20010904//EN"
 "http://www.w3.org/TR/2001/REC-SVG-20010904/DTD/svg10.dtd">
<svg version="1.0" xmlns="http://www.w3.org/2000/svg"
 width="1200.000000pt" height="562.000000pt" viewBox="0 0 1200.000000 562.000000"
 preserveAspectRatio="xMidYMid meet">

<g transform="translate(0.000000,562.000000) scale(0.100000,-0.100000)"
fill="#000000" stroke="none">
<path d="M2490 5579 c-217 -21 -410 -41 -428 -44 -30 -6 -49 -31 -245 -322
-116 -174 -229 -344 -249 -377 l-38 -60 0 -183 c0 -102 4 -192 10 -202 5 -10
45 -40 88 -66 l80 -49 -120 -159 c-66 -87 -124 -173 -129 -190 -10 -36 -12
-308 -3 -356 5 -25 32 -53 120 -129 63 -53 109 -98 102 -100 -7 -1 -145 15
-307 37 -161 22 -300 37 -308 34 -7 -3 -20 -18 -28 -33 -8 -15 -242 -560 -522
-1211 l-508 -1184 -3 -181 c-3 -163 -1 -182 15 -201 19 -22 1182 -523 1214
-523 10 0 22 8 28 17 5 10 77 241 160 513 83 272 155 504 159 514 7 16 37 -32
151 -237 101 -183 148 -257 160 -257 11 0 89 88 200 225 101 124 185 224 187
222 2 -2 18 -237 35 -523 24 -408 34 -522 45 -534 16 -16 -13 -21 801 147
l232 47 352 -66 c194 -36 358 -64 365 -61 18 7 18 7 65 284 23 140 44 256 46
258 3 4 356 60 359 57 1 0 27 -127 59 -281 32 -154 62 -286 68 -292 5 -7 22
-13 37 -13 15 0 193 31 396 70 203 38 377 70 387 70 13 0 17 -9 17 -39 0 -22
4 -51 10 -65 8 -22 16 -26 47 -26 21 0 245 18 498 41 433 38 461 42 479 62 17
20 18 35 13 154 -3 73 -2 133 1 133 4 0 67 -93 141 -205 73 -113 142 -210 153
-216 15 -8 85 19 371 147 194 86 356 159 361 162 5 3 6 -46 2 -116 -8 -127 -5
-157 19 -166 8 -3 210 8 448 24 237 17 446 30 463 30 70 0 71 5 135 366 33
181 60 332 62 337 1 4 37 -95 81 -220 47 -137 87 -237 100 -251 16 -16 174
-72 588 -207 312 -102 577 -185 590 -184 13 0 266 112 562 247 390 179 544
254 557 272 11 14 82 279 169 625 l152 600 -4 145 -3 145 -359 507 c-269 381
-365 509 -385 516 -15 5 -171 27 -347 48 -175 20 -322 40 -327 44 -4 3 28 21
72 39 132 54 121 30 121 265 l0 203 -47 44 c-27 25 -85 75 -129 112 -80 67
-82 69 -73 100 5 18 41 223 79 455 59 358 70 442 70 544 0 65 -4 127 -10 137
-5 10 -186 123 -403 250 -307 180 -401 231 -428 231 -61 0 -1141 -169 -1155
-181 -8 -7 -14 -30 -14 -55 0 -24 -3 -44 -8 -44 -4 0 -266 45 -582 100 -556
97 -576 100 -590 82 -9 -10 -30 -73 -49 -140 l-33 -122 -31 17 c-18 8 -140 74
-271 145 -132 72 -250 134 -263 139 -25 9 -1158 -195 -1180 -213 -9 -7 -13
-45 -13 -124 0 -102 -2 -114 -17 -114 -10 0 -163 19 -340 42 l-323 42 0 87 c0
64 -4 90 -15 99 -19 16 -1036 112 -1051 99 -7 -5 -15 -30 -19 -54 -3 -25 -9
-45 -11 -45 -3 0 -72 51 -152 113 -299 230 -279 217 -325 216 -23 -1 -220 -19
-437 -40z m7189 -403 c173 -102 321 -191 329 -200 13 -13 9 -51 -38 -343 -29
-180 -57 -338 -61 -349 -5 -13 -69 -60 -163 -118 -86 -54 -156 -100 -155 -104
0 -4 114 -104 254 -222 140 -118 255 -218 255 -222 0 -11 -23 -22 -311 -144
-148 -62 -275 -111 -282 -108 -6 3 -104 147 -217 321 -113 174 -211 318 -219
321 -11 4 -12 -46 -6 -301 l8 -306 -24 -5 c-34 -7 -385 -36 -436 -36 -24 0
-43 3 -44 8 0 4 -28 279 -63 612 l-62 605 48 285 c26 157 48 288 48 292 0 19
-35 36 -87 43 -32 4 -52 10 -45 12 21 8 885 141 922 142 29 1 93 -33 349 -183z
m-1929 -21 c305 -53 564 -100 576 -104 l21 -9 -33 -199 c-45 -271 -44 -263
-56 -263 -6 0 -145 41 -308 90 -163 50 -301 90 -307 90 -8 0 -97 -300 -90
-306 1 -1 129 -5 285 -9 278 -8 282 -8 282 -29 -1 -40 -46 -355 -52 -361 -3
-3 -123 13 -266 35 -144 22 -267 40 -275 40 -11 0 -9 -30 10 -162 13 -89 25
-164 28 -166 2 -3 154 18 337 45 183 28 337 47 341 43 10 -9 83 -487 76 -494
-5 -6 -1360 42 -1366 48 -2 2 -23 124 -48 272 l-44 269 93 90 c51 50 98 97
104 106 20 27 134 827 122 850 -6 10 -29 28 -51 39 -29 15 -39 26 -35 38 3 9
12 44 22 77 21 77 21 77 52 71 15 -3 277 -48 582 -101z m-3772 26 c167 -15
308 -33 314 -39 8 -8 -16 -176 -84 -594 -90 -556 -94 -583 -75 -586 18 -3 509
27 514 31 1 1 -8 206 -19 455 -12 275 -17 457 -11 463 11 11 693 -78 708 -92
11 -11 -150 -998 -168 -1034 -13 -24 -302 -355 -326 -372 -13 -10 -107 -11
-447 -2 -236 5 -439 12 -452 15 -19 4 -413 347 -434 378 -17 24 -5 67 53 199
55 126 60 143 54 184 -6 44 -30 78 -69 100 -18 10 -19 19 -7 214 17 305 13
285 87 380 59 76 64 86 64 133 0 48 -2 52 -55 101 -30 29 -55 58 -55 66 0 26
20 36 63 32 23 -2 178 -17 345 -32z m3217 -2244 c237 -138 438 -257 448 -265
9 -8 17 -27 17 -42 0 -14 -34 -201 -75 -415 -56 -290 -79 -393 -92 -406 -10
-9 -106 -67 -213 -129 -107 -62 -202 -118 -212 -124 -14 -10 35 -54 322 -291
187 -154 339 -287 339 -295 1 -11 -112 -66 -374 -183 -206 -92 -381 -167 -388
-167 -8 0 -21 8 -29 18 -9 9 -131 195 -273 412 -142 217 -265 403 -274 412 -9
10 -21 14 -26 10 -7 -5 -6 -128 3 -391 12 -320 12 -386 0 -397 -14 -14 -438
-57 -449 -45 -3 3 -72 197 -152 431 l-147 425 -85 739 c-56 488 -82 743 -76
749 13 13 1260 215 1286 209 11 -3 214 -118 450 -255z m-2772 84 c252 -26 462
-52 467 -57 5 -5 179 -497 386 -1092 281 -807 374 -1086 366 -1094 -11 -11
-618 -131 -728 -144 -31 -4 -54 -2 -58 4 -3 6 -31 133 -62 284 -31 150 -60
277 -64 281 -5 6 -680 -89 -686 -96 -1 -1 -18 -103 -39 -227 -20 -124 -39
-233 -41 -242 -7 -23 -39 -22 -159 0 l-90 17 -122 600 c-67 330 -122 613 -122
628 -1 33 326 1166 342 1185 8 10 28 12 81 7 39 -4 277 -29 529 -54z m5664
-71 c318 -39 587 -74 599 -79 21 -9 616 -840 628 -877 6 -20 -245 -1029 -260
-1044 -12 -12 -952 -440 -965 -440 -12 0 -902 288 -976 315 -23 9 -44 24 -48
33 -4 9 -60 171 -125 359 l-119 341 70 394 c38 216 74 402 80 412 17 29 456
585 492 624 17 17 34 32 39 32 4 0 267 -32 585 -70z"/>
<path d="M9034 4658 c4 -134 9 -271 12 -306 6 -62 6 -63 32 -58 15 3 90 15
167 27 77 11 144 25 148 29 13 11 69 392 60 401 -8 7 -405 149 -418 149 -4 0
-4 -109 -1 -242z"/>
<path d="M6325 2302 c4 -147 10 -310 14 -363 l6 -96 220 51 c206 48 220 53
227 76 8 26 60 452 56 455 -2 1 -109 30 -238 65 -129 34 -248 67 -264 71 l-29
8 8 -267z"/>
<path d="M4255 2368 c-10 -33 -106 -640 -102 -645 7 -6 467 -26 473 -20 2 2
-27 152 -64 333 l-69 329 -59 6 c-103 12 -174 10 -179 -3z"/>
<path d="M9719 1987 c-74 -126 -135 -236 -137 -243 -3 -10 358 -403 379 -412
4 -2 111 49 238 113 199 99 231 118 231 138 0 32 -59 489 -63 494 -2 2 -105
31 -228 64 -123 33 -238 63 -255 68 l-31 9 -134 -231z"/>
<path d="M11440 605 c0 -23 3 -25 50 -25 l50 0 0 -130 0 -130 25 0 25 0 0 130
0 130 50 0 c47 0 50 2 50 25 l0 25 -125 0 -125 0 0 -25z"/>
<path d="M11727 623 c-4 -3 -7 -73 -7 -155 l0 -148 25 0 c25 0 25 0 26 98 l0
97 37 -72 c48 -96 60 -95 111 5 l40 77 1 -102 c0 -96 1 -103 20 -103 19 0 20
7 20 155 0 150 -1 155 -21 155 -16 0 -30 -21 -69 -101 l-48 -101 -47 101 c-45
96 -66 117 -88 94z"/>
</g>
</svg>
