<?xml version="1.0" standalone="no"?>
<!DOCTYPE svg PUBLIC "-//W3C//DTD SVG 20010904//EN"
 "http://www.w3.org/TR/2001/REC-SVG-20010904/DTD/svg10.dtd">
<svg version="1.0" xmlns="http://www.w3.org/2000/svg"
 width="500.000000pt" height="503.000000pt" viewBox="0 0 500.000000 503.000000"
 preserveAspectRatio="xMidYMid meet">

<g transform="translate(0.000000,503.000000) scale(0.100000,-0.100000)"
fill="#000000" stroke="none">
<path d="M2040 4833 c-21 -36 -21 -38 -3 -51 48 -38 108 -55 183 -54 125 3
154 20 33 20 -106 1 -173 13 -192 36 -8 9 -8 21 0 45 16 46 5 48 -21 4z"/>
<path d="M2400 4852 c0 -5 6 -25 14 -43 12 -27 16 -31 21 -17 4 11 -1 28 -14
44 -12 15 -21 22 -21 16z"/>
<path d="M1988 4843 c-18 -5 -24 -19 -10 -26 11 -6 53 19 45 26 -7 7 -8 7 -35
0z"/>
<path d="M2460 4831 c39 -19 45 -19 37 4 -4 9 -18 15 -39 15 l-33 -1 35 -18z"/>
<path d="M2421 4761 c-33 -29 -33 -29 -11 -41 23 -12 43 -4 22 8 -8 6 -4 16
14 35 33 35 18 34 -25 -2z"/>
<path d="M2135 4704 c-52 -27 -52 -36 0 -13 57 25 64 29 44 29 -8 0 -27 -7
-44 -16z"/>
<path d="M2053 4660 c-13 -5 -23 -12 -23 -15 0 -9 16 -5 36 10 22 16 19 18
-13 5z"/>
<path d="M1950 4526 c6 -6 18 -5 32 2 22 10 21 10 -9 9 -19 -1 -28 -6 -23 -11z"/>
<path d="M2309 4464 c-12 -15 -12 -18 0 -22 8 -3 30 -19 50 -36 65 -57 93 -76
115 -75 20 0 20 1 -2 10 -35 13 -113 80 -132 112 -16 25 -18 26 -31 11z"/>
<path d="M2216 4367 c-36 -34 -66 -69 -66 -76 0 -8 1 -12 3 -10 1 3 33 37 72
77 38 39 67 72 64 72 -4 0 -36 -28 -73 -63z"/>
<path d="M2577 4382 c-10 -10 -14 -27 -11 -39 5 -18 -1 -25 -30 -37 -34 -14
-53 -35 -20 -22 10 4 19 -4 28 -25 l13 -30 16 53 c19 63 30 118 24 118 -2 0
-11 -8 -20 -18z"/>
<path d="M2276 4341 c-4 -6 -10 -9 -14 -7 -4 2 -16 -14 -26 -35 -15 -30 -17
-42 -8 -51 9 -9 12 -6 12 14 0 31 41 68 75 68 24 0 48 -22 65 -60 10 -23 10
-22 5 10 -3 19 -11 41 -18 48 -18 18 -83 27 -91 13z"/>
<path d="M2312 4267 c-7 -7 -13 -24 -14 -38 -3 -21 1 -24 27 -24 28 0 30 3 30
35 0 38 -23 52 -43 27z"/>
<path d="M2005 4250 c3 -5 15 -10 26 -10 10 0 19 5 19 10 0 6 -12 10 -26 10
-14 0 -23 -4 -19 -10z"/>
<path d="M996 4224 c-4 -14 -5 -28 -3 -31 3 -2 8 8 11 23 4 14 5 28 3 31 -3 2
-8 -8 -11 -23z"/>
<path d="M2507 4244 c-3 -3 -3 -12 0 -20 4 -10 0 -12 -11 -8 -20 8 -22 -28 -3
-45 11 -8 16 -5 25 15 7 14 12 31 12 39 0 16 -14 27 -23 19z"/>
<path d="M1070 4168 c-16 -66 -32 -91 -72 -113 -36 -19 -58 -55 -34 -55 7 0
39 9 71 20 73 25 81 25 89 -2 6 -23 7 -23 18 -3 19 32 51 54 80 55 l26 0 -29
29 c-16 16 -29 37 -29 45 0 9 -5 16 -11 16 -8 0 -9 -13 -5 -41 6 -39 6 -40
-20 -37 -36 4 -68 49 -67 93 1 47 -4 44 -17 -7z"/>
<path d="M1885 4195 c5 -11 10 -39 11 -63 2 -33 -4 -50 -23 -72 -20 -25 -22
-30 -8 -30 36 0 118 67 112 92 -1 6 3 12 10 15 7 2 11 -8 11 -29 0 -46 19
-114 38 -133 17 -17 28 -20 19 -5 -3 6 4 10 17 10 55 1 76 46 48 101 -18 34
-25 39 -54 39 -19 0 -45 9 -60 21 -14 11 -26 16 -26 10 0 -20 -19 -11 -62 27
-28 25 -39 30 -33 17z m205 -120 c0 -8 -4 -15 -9 -15 -13 0 -22 16 -14 24 11
11 23 6 23 -9z"/>
<path d="M1570 4150 c-9 -16 -8 -20 5 -20 8 0 15 9 15 20 0 11 -2 20 -5 20 -2
0 -9 -9 -15 -20z"/>
<path d="M1706 4094 c-4 -10 -1 -14 6 -12 15 5 23 28 10 28 -5 0 -13 -7 -16
-16z"/>
<path d="M2176 4040 c15 -22 29 -39 31 -36 6 6 -38 76 -48 76 -5 0 3 -18 17
-40z"/>
<path d="M2403 4043 c-18 -7 -16 -24 6 -52 l18 -24 18 26 c27 42 4 69 -42 50z"/>
<path d="M2150 3986 c0 -34 -2 -36 -32 -36 -46 0 -61 -34 -47 -102 22 -102
-17 -186 -89 -189 -27 -1 -27 -1 3 -9 46 -11 6 -24 -56 -18 -30 3 -45 2 -37
-3 7 -5 46 -9 86 -9 l73 0 42 67 42 67 6 -43 c6 -45 28 -71 60 -71 10 0 25 -3
34 -6 14 -6 14 -8 0 -31 -19 -28 -16 -33 28 -50 18 -6 25 -12 17 -12 -10 -1
-15 -12 -15 -36 0 -34 1 -35 29 -29 54 12 94 33 121 66 l27 32 18 -24 c37 -49
31 -10 -9 57 -26 44 -37 71 -31 77 15 15 75 -48 90 -95 16 -47 26 -55 45 -39
13 11 13 15 0 33 -23 33 -18 40 20 34 41 -7 43 0 14 63 -12 25 -27 78 -34 118
-8 40 -19 80 -25 88 -7 8 -30 14 -53 14 l-41 0 32 33 c18 18 32 39 32 46 0 8
-19 -7 -42 -32 -54 -57 -86 -66 -130 -38 -18 11 -51 30 -73 42 -22 12 -55 33
-72 47 l-33 24 0 -36z m27 -81 c57 -33 63 -39 63 -68 0 -18 9 -45 20 -62 11
-16 20 -35 20 -41 0 -12 -87 -60 -95 -52 -3 2 2 27 10 53 17 58 7 87 -57 160
-22 25 -36 45 -32 45 4 0 36 -16 71 -35z m216 -47 c12 -6 42 -12 66 -12 39 -1
47 -5 62 -31 9 -16 19 -52 22 -78 l5 -48 -47 7 c-25 4 -47 10 -49 14 -2 4 -19
4 -38 0 -32 -7 -39 -5 -70 26 -43 43 -46 83 -8 113 31 25 29 24 57 9z m-16
-247 c3 -33 4 -61 2 -61 -2 0 -25 11 -51 24 l-46 23 23 25 c12 13 28 34 35 47
18 34 31 14 37 -58z"/>
<path d="M2463 3813 c-7 -2 -13 -9 -13 -14 0 -14 26 -10 40 6 10 12 10 15 -1
14 -8 0 -20 -3 -26 -6z"/>
<path d="M2375 3750 c10 -11 23 -20 28 -20 6 0 2 9 -8 20 -10 11 -23 20 -28
20 -6 0 -2 -9 8 -20z"/>
<path d="M2464 3762 c3 -5 17 -12 32 -15 30 -5 20 8 -15 18 -15 4 -21 3 -17
-3z"/>
<path d="M595 3964 c-86 -44 -168 -179 -206 -339 -16 -69 -20 -118 -19 -215 1
-69 -2 -150 -5 -180 -9 -65 9 -106 58 -136 63 -38 64 -37 59 16 -4 44 -1 52
26 80 47 46 98 42 186 -15 79 -52 118 -57 141 -21 31 46 -14 116 -75 116 -29
0 -59 27 -85 79 -14 29 -15 37 -4 58 7 14 27 32 44 40 46 24 72 47 69 61 -1 7
0 8 3 2 10 -20 32 -9 38 20 9 43 52 73 92 67 39 -7 41 -1 11 30 -21 22 -21 23
-2 22 38 -4 54 1 54 19 1 11 8 4 20 -18 18 -33 20 -34 26 -12 3 12 12 22 19
22 23 0 71 -47 90 -89 16 -36 20 -40 34 -27 9 7 26 17 39 21 18 5 21 10 12 20
-6 7 -10 33 -8 57 3 39 7 45 46 66 40 22 60 51 26 38 -9 -3 -27 -9 -40 -12
-23 -6 -24 -5 -14 21 6 15 22 36 36 47 14 11 23 23 20 26 -3 3 -15 -3 -25 -12
-18 -17 -20 -17 -39 2 -25 25 -60 19 -140 -22 -30 -15 -57 -24 -60 -21 -4 4 0
10 8 15 50 28 52 34 20 52 -29 17 -30 17 -20 -2 15 -27 15 -27 -47 -45 -32 -9
-70 -23 -86 -31 -24 -13 -31 -13 -63 2 -19 9 -48 33 -64 53 -17 19 -30 31 -30
25 0 -13 80 -89 101 -96 11 -4 8 -10 -11 -27 -43 -37 -79 -53 -103 -45 -12 5
-25 7 -29 6 -13 -3 -31 30 -45 86 -28 109 -33 146 -27 179 7 38 8 38 -31 17z"/>
<path d="M2392 3958 c5 -15 28 -23 28 -10 0 5 -7 13 -16 16 -10 4 -14 1 -12
-6z"/>
<path d="M1795 3840 c4 -6 11 -8 16 -5 14 9 11 15 -7 15 -8 0 -12 -5 -9 -10z"/>
<path d="M1850 3816 c0 -2 6 -9 14 -15 10 -9 15 -8 20 4 4 10 -1 15 -14 15
-11 0 -20 -2 -20 -4z"/>
<path d="M2624 3768 l25 -43 -21 -22 c-12 -13 -18 -26 -14 -30 4 -5 18 5 31
21 l23 29 -26 43 c-15 24 -31 44 -35 44 -4 0 3 -19 17 -42z"/>
<path d="M1870 3728 c0 -20 -26 -35 -58 -32 -12 0 -25 -3 -28 -7 -3 -5 2 -9
11 -9 8 0 24 -6 35 -12 16 -10 22 -9 33 6 13 17 15 18 46 1 18 -9 35 -14 38
-12 2 3 -5 8 -17 12 -12 4 -30 21 -41 38 -12 21 -19 26 -19 15z"/>
<path d="M2660 3687 c0 -7 10 -19 23 -26 37 -24 191 -100 195 -97 2 2 -28 20
-65 41 -37 21 -84 50 -104 66 -41 32 -49 35 -49 16z"/>
<path d="M3128 3603 c-22 -5 -22 -10 -4 -28 12 -12 15 -12 20 0 3 9 18 15 36
15 16 0 30 5 30 10 0 10 -49 12 -82 3z"/>
<path d="M3820 3577 c0 -26 -28 -32 -50 -12 -19 18 -20 17 -20 -13 0 -33 -29
-59 -46 -42 -10 10 -34 13 -87 11 -30 -1 -40 -6 -44 -21 -6 -22 -18 -26 -29
-9 -3 6 -34 24 -68 40 -226 107 -469 -91 -600 -489 -12 -36 -28 -60 -53 -79
-38 -29 -73 -89 -73 -126 0 -33 19 -86 43 -121 l20 -28 12 30 c19 43 52 62
111 62 l51 0 67 -80 c82 -99 115 -105 116 -22 1 15 7 38 14 51 17 31 12 46
-31 94 -18 20 -33 45 -33 55 0 11 27 31 84 60 51 27 88 53 97 69 25 46 92 57
147 23 28 -17 32 -18 32 -4 0 9 -10 33 -22 52 -12 20 -17 32 -10 28 6 -4 21
-2 33 5 12 6 36 13 53 16 17 3 36 6 41 6 6 1 11 -17 13 -40 4 -51 15 -55 32
-13 19 46 40 34 79 -43 31 -60 38 -67 64 -67 145 0 190 -203 60 -268 -85 -43
-157 -36 -222 24 -37 33 -41 34 -97 28 -52 -5 -87 -1 -166 22 -15 5 -18 -2
-18 -40 0 -58 35 -101 93 -117 23 -6 58 -17 77 -25 31 -12 81 -16 194 -15 16
0 34 5 40 11 15 15 36 12 36 -5 0 -8 -10 -21 -22 -29 -24 -16 -154 -37 -175
-29 -16 6 -16 -9 -1 -42 8 -18 19 -25 42 -26 17 -1 42 -5 56 -10 19 -6 13 -8
-25 -5 -44 4 -48 3 -30 -10 10 -8 36 -14 56 -14 32 0 43 6 65 35 15 20 36 62
48 95 19 51 92 150 111 150 10 0 5 -46 -10 -96 -16 -55 -80 -167 -132 -231
-45 -56 -81 -66 -181 -48 -74 13 -229 63 -284 91 -32 17 -41 18 -33 4 12 -20
-14 -9 -56 23 -23 17 -43 40 -45 51 -5 33 -20 38 -37 12 -9 -13 -30 -27 -47
-31 -21 -5 -30 -12 -30 -27 0 -12 -5 -18 -12 -15 -7 2 -48 14 -90 27 -43 13
-78 27 -78 32 0 5 -4 6 -10 3 -12 -7 -59 16 -59 30 1 20 -18 14 -31 -11 -24
-44 -173 -177 -237 -212 -33 -17 -64 -32 -67 -32 -3 0 19 50 49 111 38 74 54
117 50 130 -6 19 -8 19 -25 4 -16 -15 -18 -13 -23 22 -9 56 -107 143 -162 143
-33 0 -97 -43 -127 -85 -17 -24 -45 -49 -62 -56 -17 -7 -34 -17 -38 -22 -3 -6
-63 21 -135 61 -91 51 -140 72 -164 72 -40 0 -114 -32 -147 -63 -22 -20 -24
-21 -33 -4 -6 9 -29 27 -52 38 -51 26 -77 48 -77 66 0 21 19 15 52 -17 31 -31
45 -33 35 -6 -5 13 -169 140 -221 171 -9 6 -19 29 -22 55 -3 25 -12 52 -20 61
-8 8 -14 26 -15 40 0 14 -3 18 -6 9 -18 -53 -47 -99 -68 -110 -14 -7 -25 -21
-25 -31 0 -10 -8 -23 -17 -28 -10 -6 -13 -11 -6 -11 6 0 19 10 27 22 11 15 19
18 28 11 7 -5 33 -15 58 -22 50 -15 149 -76 157 -99 4 -8 -4 -22 -18 -33 -17
-13 -20 -19 -8 -19 19 0 59 -41 59 -61 0 -43 -54 -51 -94 -14 -31 29 -33 49
-6 68 20 14 19 16 -27 45 -27 17 -70 41 -97 52 -35 16 -45 25 -37 33 6 6 11
18 11 26 0 12 -3 11 -18 -2 -20 -18 -92 -23 -92 -7 0 6 15 19 33 30 l32 20
-35 0 c-19 0 -53 3 -74 7 -36 6 -39 4 -34 -14 5 -17 0 -20 -33 -20 -46 0 -71
-18 -64 -47 7 -29 -8 -44 -100 -101 -75 -46 -350 -229 -369 -246 -4 -4 7 -15
25 -24 28 -13 31 -13 15 -1 -11 9 -18 17 -15 20 14 12 168 96 176 96 6 0 37
20 69 45 31 25 63 45 70 45 8 0 23 14 36 30 12 17 48 44 80 59 32 16 52 32 45
34 -6 3 16 6 49 6 73 1 110 -13 190 -72 64 -47 104 -94 104 -121 0 -14 -6 -12
-38 8 -54 34 -105 46 -192 46 -85 0 -146 -23 -226 -85 -26 -19 -53 -35 -60
-35 -7 0 -44 -29 -82 -64 -74 -67 -107 -85 -125 -67 -23 23 -25 10 -2 -15 13
-14 34 -46 46 -70 11 -24 24 -44 27 -44 4 0 71 48 150 105 79 58 146 105 150
104 11 0 70 -89 99 -148 17 -35 29 -81 34 -131 11 -109 25 -153 66 -207 l36
-48 -10 -75 -11 -75 -99 -92 c-56 -53 -107 -93 -119 -93 -11 0 -25 -5 -31 -11
-5 -5 -27 -12 -48 -15 -20 -2 -45 -9 -55 -14 -24 -13 -80 -84 -80 -101 0 -8
17 -55 37 -106 26 -67 41 -92 52 -91 12 2 17 -10 22 -48 4 -28 16 -77 28 -108
11 -31 21 -78 22 -104 2 -76 11 -97 44 -100 24 -2 27 0 13 8 -25 15 -41 106
-36 196 5 88 28 144 103 249 106 149 286 271 430 290 104 13 104 13 116 58 6
23 21 90 33 150 l23 109 96 1 c110 1 129 -9 162 -83 17 -38 17 -41 -4 -89 -18
-44 -37 -126 -32 -148 1 -3 26 -6 55 -4 30 1 63 -2 74 -8 15 -8 36 -3 97 24
43 18 115 44 161 57 46 12 84 26 84 30 0 5 -5 8 -12 8 -19 0 -78 50 -99 84
-25 41 -24 86 4 126 31 47 77 71 146 77 70 7 120 -8 166 -48 60 -53 70 -125
24 -183 l-21 -27 53 8 c30 4 101 8 159 8 l106 0 -46 60 c-25 33 -58 80 -74
105 -25 40 -36 48 -96 68 -114 38 -296 48 -409 21 l-44 -10 -51 50 c-28 28
-71 59 -96 70 -68 30 -200 53 -279 49 -75 -3 -86 6 -19 17 171 29 343 -27 414
-135 20 -29 32 -39 43 -34 9 4 52 15 96 25 94 22 225 24 313 5 34 -7 62 -9 62
-4 0 18 -76 81 -128 105 -60 28 -214 62 -287 64 -44 0 -47 2 -25 10 14 6 79 9
145 8 l120 -2 85 51 c110 67 197 109 242 117 26 5 65 -2 143 -24 60 -17 110
-33 112 -35 5 -5 -131 -62 -169 -71 -16 -4 -28 -9 -28 -12 0 -3 21 -24 48 -48
57 -52 92 -117 92 -174 0 -48 -18 -91 -30 -72 -4 7 -9 -29 -12 -79 -6 -98 -7
-95 49 -153 12 -13 25 -35 28 -50 9 -36 14 -38 64 -25 28 7 45 18 48 29 5 19
81 47 158 58 l40 6 0 54 c-1 47 -5 57 -33 82 -24 21 -43 29 -70 29 -31 0 -43
6 -60 30 -12 16 -39 38 -59 48 l-36 19 44 15 c24 9 51 19 60 22 12 5 20 -2 30
-26 7 -18 42 -60 77 -94 l64 -61 8 -95 c5 -60 15 -109 27 -132 l19 -38 -26
-75 c-24 -68 -31 -78 -76 -106 -28 -18 -64 -31 -84 -32 -111 -4 -119 -6 -148
-30 -28 -23 -29 -28 -19 -56 7 -17 24 -45 39 -62 23 -28 26 -29 21 -9 -3 12
-9 25 -14 28 -23 14 -3 20 59 18 101 -2 155 -38 183 -121 14 -44 6 -87 -28
-138 -15 -22 -26 -48 -24 -57 1 -13 -2 -16 -13 -12 -9 3 -13 10 -10 15 3 5
-15 9 -40 9 -25 0 -48 5 -51 10 -6 9 -26 7 -80 -7 -19 -5 -19 -5 -3 14 35 38
63 165 42 186 -4 3 -17 -16 -31 -43 -25 -51 -62 -85 -149 -139 l-51 -31 -89
26 c-144 41 -448 146 -455 156 -4 7 -14 6 -27 -1 -32 -17 -94 -13 -128 8 -31
19 -94 104 -94 127 0 7 -5 14 -12 16 -6 2 -13 30 -16 61 l-5 57 -24 -52 c-20
-43 -23 -62 -18 -100 3 -27 4 -48 3 -48 -2 0 -28 9 -58 21 -65 25 -230 37
-272 20 -24 -9 -28 -16 -28 -50 0 -22 4 -42 9 -45 4 -3 11 -42 14 -86 6 -97
38 -171 96 -223 36 -32 38 -38 46 -113 4 -43 8 -94 8 -112 0 -25 6 -34 23 -38
31 -8 58 -40 51 -61 -3 -10 -21 -54 -41 -98 -19 -44 -38 -103 -42 -131 -6 -47
-4 -53 22 -78 16 -14 40 -26 54 -26 31 0 120 41 139 63 17 21 45 22 61 2 20
-25 54 -17 90 20 31 32 39 35 92 35 62 0 131 -26 141 -54 3 -8 32 -29 64 -46
32 -16 74 -39 93 -50 19 -11 44 -20 56 -20 21 0 22 3 17 83 -3 45 -7 84 -9 86
-9 10 -16 -12 -21 -68 -3 -34 -9 -61 -14 -61 -10 0 -69 97 -69 115 0 7 -4 17
-10 20 -5 3 -10 -3 -10 -15 0 -12 -5 -30 -11 -41 -10 -19 -12 -19 -35 -4 -70
46 -76 65 -50 162 20 73 52 138 91 178 36 38 68 44 96 19 17 -16 21 -14 58 19
22 20 53 43 70 51 33 18 71 21 71 7 0 -5 9 -12 19 -16 11 -3 22 -19 26 -35 4
-17 10 -30 13 -30 11 1 68 82 95 136 23 45 45 112 61 187 5 22 12 27 36 27 34
0 36 -4 49 -125 7 -62 6 -87 -5 -109 -18 -37 -18 -35 9 -47 12 -5 33 -16 47
-24 70 -40 192 17 221 102 6 19 9 57 8 86 l-4 52 70 66 c39 37 104 96 146 132
105 91 150 159 198 303 28 83 32 89 65 101 62 21 136 62 196 107 l58 44 101
-32 c56 -18 109 -40 119 -49 10 -9 45 -25 78 -36 51 -16 67 -17 122 -7 65 12
108 44 97 74 -2 6 9 49 26 95 94 248 102 280 103 362 0 50 -5 91 -14 110 l-14
30 -6 -50 c-4 -38 -9 -51 -24 -53 -43 -9 -93 44 -98 101 -3 34 -82 54 -133 33
-35 -15 -75 -76 -75 -116 0 -16 -6 -20 -29 -20 -17 0 -33 -4 -36 -10 -10 -16
-66 -11 -130 11 -48 17 -76 20 -138 17 l-78 -5 -29 41 c-34 51 -110 121 -139
131 -11 3 -21 13 -21 21 0 18 19 9 102 -49 32 -23 60 -38 64 -35 11 11 -88 97
-138 120 -41 18 -47 25 -41 42 4 12 16 57 27 101 l21 80 45 3 c25 1 56 5 70 8
24 5 24 6 6 20 -11 8 -40 14 -64 14 l-44 0 7 36 c14 75 22 87 58 80 38 -7 62
6 54 28 -4 9 -1 16 6 16 25 0 -19 20 -45 20 -36 0 -36 6 7 186 19 80 35 147
35 149 0 1 -17 6 -37 9 -21 4 -62 11 -90 17 l-53 10 0 40 c0 38 -26 79 -50 79
-16 0 -150 120 -150 135 0 7 -9 17 -20 20 -31 10 -24 22 10 17 18 -3 41 3 63
17 38 23 73 27 79 9 3 -8 30 -13 79 -14 41 -1 88 -5 105 -9 18 -4 34 -3 38 3
3 5 -8 12 -25 16 -19 3 -36 16 -46 35 -16 27 -18 28 -41 13 -25 -17 -33 -12
-56 33 -11 20 -16 24 -16 12z m-321 -82 c70 -36 111 -122 86 -181 -11 -27 -20
-34 -42 -34 -16 0 -53 -6 -83 -14 -53 -14 -56 -14 -78 7 -35 32 -62 91 -62
133 0 54 53 104 109 104 23 0 55 -7 70 -15z m-2001 -787 c-2 -6 -10 -14 -16
-16 -7 -2 -10 2 -6 12 7 18 28 22 22 4z m2246 -447 c-2 -3 -12 3 -22 13 -16
17 -16 18 5 5 12 -7 20 -15 17 -18z m90 -52 c31 -37 33 -72 6 -99 -30 -30 -76
-26 -111 9 -53 54 -30 121 42 121 29 0 43 -6 63 -31z m-629 -385 c-31 -24 -87
-34 -135 -26 l-45 8 45 16 c25 9 70 17 100 17 51 0 53 -1 35 -15z"/>
<path d="M3474 3455 c-7 -30 -17 -31 -54 -5 l-27 19 -6 -63 c-3 -34 -7 -68 -9
-75 -2 -7 7 -20 20 -28 l22 -15 0 61 c0 65 6 73 35 41 20 -22 35 -18 35 11 0
35 21 20 43 -31 25 -55 37 -63 37 -23 0 22 -71 133 -85 133 -3 0 -7 -11 -11
-25z"/>
<path d="M3118 1813 c7 -3 16 -2 19 1 4 3 -2 6 -13 5 -11 0 -14 -3 -6 -6z"/>
<path d="M1050 3551 c0 -6 5 -11 11 -11 6 0 9 -6 6 -14 -3 -7 2 -24 10 -36 15
-21 17 -21 26 -5 7 13 4 24 -10 43 -21 28 -43 40 -43 23z"/>
<path d="M2908 3553 c7 -3 16 -2 19 1 4 3 -2 6 -13 5 -11 0 -14 -3 -6 -6z"/>
<path d="M4056 3535 c-3 -8 -1 -15 4 -15 13 0 22 18 11 24 -5 3 -11 -1 -15 -9z"/>
<path d="M3010 3530 c8 -5 24 -10 34 -10 26 0 18 6 -19 14 -22 5 -26 4 -15 -4z"/>
<path d="M2026 3457 l1 -52 54 0 c52 -1 147 30 135 43 -4 3 -39 15 -79 27 -39
12 -81 24 -92 28 -18 6 -20 3 -19 -46z"/>
<path d="M897 3473 c-19 -18 -5 -67 27 -99 57 -57 83 -35 47 41 -23 49 -57 76
-74 58z m28 -23 c3 -5 1 -10 -4 -10 -6 0 -11 5 -11 10 0 6 2 10 4 10 3 0 8 -4
11 -10z"/>
<path d="M1711 3404 c0 -11 3 -14 6 -6 3 7 2 16 -1 19 -3 4 -6 -2 -5 -13z"/>
<path d="M1808 3403 c7 -3 16 -2 19 1 4 3 -2 6 -13 5 -11 0 -14 -3 -6 -6z"/>
<path d="M1039 3338 c-1 -7 -2 -24 -3 -38 -1 -23 -5 -25 -59 -28 -40 -2 -60
-8 -64 -18 -8 -21 23 -97 50 -121 30 -28 92 -46 131 -39 24 5 33 3 33 -7 0
-27 45 -87 69 -93 35 -9 51 10 59 69 3 29 9 60 11 70 3 9 1 17 -4 17 -5 0 -12
-9 -15 -20 -5 -19 -30 -33 -85 -46 -27 -7 -27 -7 -8 14 10 12 23 19 28 16 4
-3 7 -2 6 3 -2 5 6 20 17 34 17 21 29 26 62 25 58 -1 83 24 83 81 l0 44 -26
-20 c-37 -29 -87 -41 -128 -30 -35 10 -116 63 -129 86 -10 16 -27 17 -28 1z"/>
<path d="M632 3139 c-7 -12 -12 -22 -10 -23 2 -1 14 -7 28 -14 14 -7 36 -22
50 -33 24 -19 25 -20 6 -34 -23 -17 -14 -20 15 -5 30 17 24 57 -15 96 -39 39
-56 42 -74 13z"/>
<path d="M1313 3100 c0 -25 2 -35 4 -22 2 12 2 32 0 45 -2 12 -4 2 -4 -23z"/>
<path d="M3640 3056 c0 -2 7 -6 15 -10 8 -3 15 -1 15 4 0 6 -7 10 -15 10 -8 0
-15 -2 -15 -4z"/>
<path d="M790 3029 c0 -7 -9 -23 -21 -35 -20 -21 -20 -24 -5 -46 9 -13 16 -43
16 -70 0 -43 3 -50 26 -58 16 -7 32 -7 44 0 13 7 21 6 30 -5 7 -8 18 -15 25
-15 14 0 55 46 55 61 0 9 -149 172 -162 177 -4 2 -8 -2 -8 -9z"/>
<path d="M3610 2979 c0 -5 5 -7 10 -4 6 3 10 -1 10 -9 0 -9 -5 -16 -12 -16 -9
0 -9 -3 -1 -11 7 -7 17 -8 27 -2 14 8 14 11 0 31 -16 23 -34 29 -34 11z"/>
<path d="M3363 2943 c-24 -9 -13 -20 16 -15 23 3 33 -1 46 -22 21 -32 31 -101
16 -110 -6 -4 -11 -13 -11 -19 1 -26 30 28 30 55 0 73 -50 131 -97 111z"/>
<path d="M3367 2903 c-24 -24 9 -103 43 -103 26 0 33 32 16 74 -14 34 -41 47
-59 29z m30 -29 c-9 -9 -28 6 -21 18 4 6 10 6 17 -1 6 -6 8 -13 4 -17z"/>
<path d="M2978 2663 c7 -3 16 -2 19 1 4 3 -2 6 -13 5 -11 0 -14 -3 -6 -6z"/>
<path d="M3540 2550 c0 -11 14 -11 50 0 22 7 21 8 -12 9 -21 1 -38 -3 -38 -9z"/>
<path d="M3638 2363 c7 -3 16 -2 19 1 4 3 -2 6 -13 5 -11 0 -14 -3 -6 -6z"/>
<path d="M376 2083 c-12 -12 -6 -20 16 -19 14 1 27 -8 35 -24 12 -24 13 -24
13 -3 0 23 -51 59 -64 46z"/>
<path d="M220 2013 c0 -5 12 -20 28 -34 l27 -24 -25 30 c-14 17 -26 32 -27 34
-2 2 -3 0 -3 -6z"/>
<path d="M397 1962 c-19 -21 -22 -32 -7 -32 10 0 34 39 27 46 -2 2 -11 -4 -20
-14z"/>
<path d="M2351 1948 c-74 -40 -35 -128 57 -128 66 0 107 74 63 114 -25 23 -90
30 -120 14z"/>
<path d="M2810 1955 c0 -30 93 -135 107 -121 11 11 -28 76 -63 102 -30 24 -44
29 -44 19z"/>
<path d="M320 1930 c0 -5 12 -10 28 -9 24 0 25 1 7 9 -27 12 -35 12 -35 0z"/>
<path d="M2878 1711 l34 -6 -26 -22 c-14 -13 -26 -27 -26 -33 0 -15 47 -23 94
-17 27 4 47 2 54 -5 9 -9 12 -8 12 4 0 9 -20 29 -45 45 -25 15 -45 31 -45 36
0 4 -19 6 -42 6 -42 -2 -42 -2 -10 -8z"/>
<path d="M2309 1634 c-9 -11 -8 -14 2 -14 8 0 20 -9 27 -20 14 -23 55 -28 46
-6 -3 8 7 18 25 26 17 7 31 16 31 21 0 14 -119 7 -131 -7z"/>
<path d="M2898 1603 c12 -2 30 -2 40 0 9 3 -1 5 -23 4 -22 0 -30 -2 -17 -4z"/>
<path d="M2258 1570 c-41 -32 -71 -114 -72 -195 -1 -93 17 -129 65 -133 45 -4
87 29 114 87 10 22 21 39 24 37 4 -3 17 3 30 13 22 17 23 20 11 75 -13 62 -46
109 -60 85 -5 -7 -3 -21 6 -33 8 -11 14 -35 14 -53 0 -81 -96 -86 -117 -5 -6
23 3 57 32 125 10 24 -15 22 -47 -3z"/>
<path d="M1547 1569 c6 -6 42 -13 80 -15 l68 -3 -50 13 c-64 18 -113 20 -98 5z"/>
<path d="M2967 1537 c-9 -18 -18 -57 -21 -87 -7 -60 -3 -58 14 8 7 27 16 42
23 39 9 -3 11 7 9 34 -2 22 -5 39 -7 39 -1 0 -10 -15 -18 -33z"/>
<path d="M2316 1515 c-25 -38 -18 -69 17 -73 31 -4 33 5 13 61 l-13 38 -17
-26z"/>
<path d="M2107 1509 c4 -13 9 -17 15 -11 11 11 3 32 -12 32 -4 0 -6 -9 -3 -21z"/>
<path d="M3041 1424 c0 -11 3 -14 6 -6 3 7 2 16 -1 19 -3 4 -6 -2 -5 -13z"/>
<path d="M1758 1404 c-5 -4 -8 -16 -8 -28 0 -14 3 -17 11 -9 6 6 9 19 7 28 -1
9 -6 13 -10 9z"/>
<path d="M1632 1286 c-84 -49 -98 -61 -84 -70 5 -3 42 19 82 49 109 82 110 85
2 21z"/>
<path d="M2437 1216 c-15 -23 -15 -24 6 -30 33 -9 45 -6 19 4 -19 8 -21 13
-12 30 15 28 6 25 -13 -4z"/>
<path d="M3060 1200 c-13 -9 -13 -10 0 -10 8 0 22 5 30 10 13 9 13 10 0 10 -8
0 -22 -5 -30 -10z"/>
<path d="M2650 564 c-22 -49 -25 -74 -11 -74 5 0 15 19 23 43 8 23 19 50 23
60 4 10 3 17 -4 17 -7 0 -21 -21 -31 -46z"/>
</g>
</svg>
